<?xml version="1.0" encoding="utf-8"?>
<!-- Generated by Mocodo 4.3.2 -->
<svg width="365" height="576" viewBox="0 0 365 576" xmlns="http://www.w3.org/2000/svg">
<rect x="0" y="0" width="365" height="576" fill="#f7f7f7" stroke="none" stroke-width="0"/>

<!-- Association TYPER -->
<g>
	<line x1="59" y1="44" x2="172" y2="44" stroke="#9970ab" stroke-width="1"/>
	<line x1="296" y1="44" x2="172" y2="44" stroke="#9970ab" stroke-width="1"/>
	<g>
		<path d="M183 18 a14 14 90 0 1 14 14 V44 h-50 V32 a14 14 90 0 1 14 -14" fill="#c2a5cf" stroke="#c2a5cf" stroke-width="0"/>
		<path d="M197 44 v12 a14 14 90 0 1 -14 14 H161 a14 14 90 0 1 -14 -14 V44 H50" fill="#e7d4e8" stroke="#e7d4e8" stroke-width="0"/>
		<rect x="147" y="18" width="50" height="52" fill="none" rx="14" stroke="#9970ab" stroke-width="1.5"/>
		<line x1="147" y1="44" x2="197" y2="44" stroke="#9970ab" stroke-width="1"/>
		<text x="155" y="36.6" fill="#000000" font-family="Trebuchet MS" font-size="14">typer</text>
	</g>
	<text x="114" y="61" fill="#1b7837" font-family="Verdana" font-size="12">0,N</text>
	<text x="210" y="61" fill="#1b7837" font-family="Verdana" font-size="12">1,1</text>
</g>

<!-- Association CREER -->
<g>
	<line x1="296" y1="44" x2="296" y2="139" stroke="#9970ab" stroke-width="1"/>
	<line x1="172" y1="139" x2="296" y2="139" stroke="#9970ab" stroke-width="1"/>
	<g>
		<path d="M307 113 a14 14 90 0 1 14 14 V139 h-50 V127 a14 14 90 0 1 14 -14" fill="#c2a5cf" stroke="#c2a5cf" stroke-width="0"/>
		<path d="M321 139 v12 a14 14 90 0 1 -14 14 H285 a14 14 90 0 1 -14 -14 V139 H50" fill="#e7d4e8" stroke="#e7d4e8" stroke-width="0"/>
		<rect x="271" y="113" width="50" height="52" fill="none" rx="14" stroke="#9970ab" stroke-width="1.5"/>
		<line x1="271" y1="139" x2="321" y2="139" stroke="#9970ab" stroke-width="1"/>
		<text x="279" y="131.6" fill="#000000" font-family="Trebuchet MS" font-size="14">creer</text>
	</g>
	<text x="301" y="96" fill="#1b7837" font-family="Verdana" font-size="12">0,N</text>
	<text x="237" y="156" fill="#1b7837" font-family="Verdana" font-size="12">1,1</text>
</g>

<!-- Association IDENTIFIER -->
<g>
	<line x1="59" y1="288" x2="172" y2="288" stroke="#9970ab" stroke-width="1"/>
	<line x1="296" y1="288" x2="172" y2="288" stroke="#9970ab" stroke-width="1"/>
	<g>
		<path d="M196 262 a14 14 90 0 1 14 14 V288 h-76 V276 a14 14 90 0 1 14 -14" fill="#c2a5cf" stroke="#c2a5cf" stroke-width="0"/>
		<path d="M210 288 v12 a14 14 90 0 1 -14 14 H148 a14 14 90 0 1 -14 -14 V288 H76" fill="#e7d4e8" stroke="#e7d4e8" stroke-width="0"/>
		<rect x="134" y="262" width="76" height="52" fill="none" rx="14" stroke="#9970ab" stroke-width="1.5"/>
		<line x1="134" y1="288" x2="210" y2="288" stroke="#9970ab" stroke-width="1"/>
		<text x="142" y="280.6" fill="#000000" font-family="Trebuchet MS" font-size="14">identifier</text>
	</g>
	<text x="107" y="280" fill="#1b7837" font-family="Verdana" font-size="12">1,1</text>
	<text x="216" y="305" fill="#1b7837" font-family="Verdana" font-size="12">1,1</text>
</g>

<!-- Association VIVRE -->
<g>
	<line x1="59" y1="288" x2="59" y2="428" stroke="#9970ab" stroke-width="1"/>
	<line x1="59" y1="523" x2="59" y2="428" stroke="#9970ab" stroke-width="1"/>
	<g>
		<path d="M69 402 a14 14 90 0 1 14 14 V428 h-48 V416 a14 14 90 0 1 14 -14" fill="#c2a5cf" stroke="#c2a5cf" stroke-width="0"/>
		<path d="M83 428 v12 a14 14 90 0 1 -14 14 H49 a14 14 90 0 1 -14 -14 V428 H48" fill="#e7d4e8" stroke="#e7d4e8" stroke-width="0"/>
		<rect x="35" y="402" width="48" height="52" fill="none" rx="14" stroke="#9970ab" stroke-width="1.5"/>
		<line x1="35" y1="428" x2="83" y2="428" stroke="#9970ab" stroke-width="1"/>
		<text x="43" y="420.6" fill="#000000" font-family="Trebuchet MS" font-size="14">vivre</text>
	</g>
	<text x="33" y="394" fill="#1b7837" font-family="Verdana" font-size="12">1,1</text>
	<text x="64" y="471" fill="#1b7837" font-family="Verdana" font-size="12">0,N</text>
</g>

<!-- Association DEPARTEMENTER -->
<g>
	<line x1="59" y1="288" x2="172" y2="428" stroke="#9970ab" stroke-width="1"/>
	<line x1="296" y1="523" x2="172" y2="428" stroke="#9970ab" stroke-width="1"/>
	<g>
		<path d="M214 402 a14 14 90 0 1 14 14 V428 h-112 V416 a14 14 90 0 1 14 -14" fill="#c2a5cf" stroke="#c2a5cf" stroke-width="0"/>
		<path d="M228 428 v12 a14 14 90 0 1 -14 14 H130 a14 14 90 0 1 -14 -14 V428 H112" fill="#e7d4e8" stroke="#e7d4e8" stroke-width="0"/>
		<rect x="116" y="402" width="112" height="52" fill="none" rx="14" stroke="#9970ab" stroke-width="1.5"/>
		<line x1="116" y1="428" x2="228" y2="428" stroke="#9970ab" stroke-width="1"/>
		<text x="123" y="420.6" fill="#000000" font-family="Trebuchet MS" font-size="14">departementer</text>
	</g>
	<text x="107" y="339.28" fill="#1b7837" font-family="Verdana" font-size="12">1,1</text>
	<text x="249.56" y="480" fill="#1b7837" font-family="Verdana" font-size="12">0,N</text>
</g>

<!-- Association CODER -->
<g>
	<line x1="59" y1="523" x2="172" y2="523" stroke="#9970ab" stroke-width="1"/>
	<line x1="296" y1="523" x2="172" y2="523" stroke="#9970ab" stroke-width="1"/>
	<g>
		<path d="M184 497 a14 14 90 0 1 14 14 V523 h-52 V511 a14 14 90 0 1 14 -14" fill="#c2a5cf" stroke="#c2a5cf" stroke-width="0"/>
		<path d="M198 523 v12 a14 14 90 0 1 -14 14 H160 a14 14 90 0 1 -14 -14 V523 H52" fill="#e7d4e8" stroke="#e7d4e8" stroke-width="0"/>
		<rect x="146" y="497" width="52" height="52" fill="none" rx="14" stroke="#9970ab" stroke-width="1.5"/>
		<line x1="146" y1="523" x2="198" y2="523" stroke="#9970ab" stroke-width="1"/>
		<text x="154" y="515.6" fill="#000000" font-family="Trebuchet MS" font-size="14">coder</text>
	</g>
	<text x="104" y="540" fill="#1b7837" font-family="Verdana" font-size="12">1,N</text>
	<text x="216" y="540" fill="#1b7837" font-family="Verdana" font-size="12">0,N</text>
</g>

<!-- Entity TYPE_APPAREIL -->
<g>
	<g>
		<rect x="9" y="9" width="100" height="26" fill="#a6dba0" stroke="none" stroke-width="0" opacity="1"/>
		<rect x="9" y="35" width="100" height="44" fill="#d9f0d3" stroke="none" stroke-width="0" opacity="1"/>
		<rect x="9" y="9" width="100" height="70" fill="none" stroke="#5aae61" stroke-width="1.5" opacity="1"/>
		<line x1="9" y1="35" x2="109" y2="35" stroke="#5aae61" stroke-width="1"/>
	</g>
	<text x="14" y="27.6" fill="#000000" font-family="Trebuchet MS" font-size="14">type_appareil</text>
	<text x="14" y="53.6" fill="#000000" font-family="Trebuchet MS" font-size="14">id</text>
	<line x1="14" y1="56" x2="27" y2="56" stroke="#000000" stroke-width="1"/>
	<text x="14" y="71.6" fill="#000000" font-family="Trebuchet MS" font-size="14">libelle</text>
</g>

<!-- Entity MARQUE_APPAREIL -->
<g>
	<g>
		<rect x="236" y="9" width="120" height="26" fill="#a6dba0" stroke="none" stroke-width="0" opacity="1"/>
		<rect x="236" y="35" width="120" height="44" fill="#d9f0d3" stroke="none" stroke-width="0" opacity="1"/>
		<rect x="236" y="9" width="120" height="70" fill="none" stroke="#5aae61" stroke-width="1.5" opacity="1"/>
		<line x1="236" y1="35" x2="356" y2="35" stroke="#5aae61" stroke-width="1"/>
	</g>
	<text x="241" y="27.6" fill="#000000" font-family="Trebuchet MS" font-size="14">marque_appareil</text>
	<text x="241" y="53.6" fill="#000000" font-family="Trebuchet MS" font-size="14">id</text>
	<line x1="241" y1="56" x2="254" y2="56" stroke="#000000" stroke-width="1"/>
	<text x="241" y="71.6" fill="#000000" font-family="Trebuchet MS" font-size="14">libelle</text>
</g>

<!-- Entity MODELE_APPAREIL -->
<g>
	<g>
		<rect x="112" y="104" width="120" height="26" fill="#a6dba0" stroke="none" stroke-width="0" opacity="1"/>
		<rect x="112" y="130" width="120" height="44" fill="#d9f0d3" stroke="none" stroke-width="0" opacity="1"/>
		<rect x="112" y="104" width="120" height="70" fill="none" stroke="#5aae61" stroke-width="1.5" opacity="1"/>
		<line x1="112" y1="130" x2="232" y2="130" stroke="#5aae61" stroke-width="1"/>
	</g>
	<text x="118" y="122.6" fill="#000000" font-family="Trebuchet MS" font-size="14">modele_appareil</text>
	<text x="117" y="148.6" fill="#000000" font-family="Trebuchet MS" font-size="14">id</text>
	<line x1="117" y1="151" x2="130" y2="151" stroke="#000000" stroke-width="1"/>
	<text x="117" y="166.6" fill="#000000" font-family="Trebuchet MS" font-size="14">libelle</text>
</g>

<!-- Entity USERS -->
<g>
	<g>
		<rect x="16" y="199" width="86" height="26" fill="#a6dba0" stroke="none" stroke-width="0" opacity="1"/>
		<rect x="16" y="225" width="86" height="152" fill="#d9f0d3" stroke="none" stroke-width="0" opacity="1"/>
		<rect x="16" y="199" width="86" height="178" fill="none" stroke="#5aae61" stroke-width="1.5" opacity="1"/>
		<line x1="16" y1="225" x2="102" y2="225" stroke="#5aae61" stroke-width="1"/>
	</g>
	<text x="42" y="217.6" fill="#000000" font-family="Trebuchet MS" font-size="14">users</text>
	<text x="21" y="243.6" fill="#000000" font-family="Trebuchet MS" font-size="14">id</text>
	<line x1="21" y1="246" x2="34" y2="246" stroke="#000000" stroke-width="1"/>
	<text x="21" y="261.6" fill="#000000" font-family="Trebuchet MS" font-size="14">nom</text>
	<text x="21" y="279.6" fill="#000000" font-family="Trebuchet MS" font-size="14">prenom</text>
	<text x="21" y="297.6" fill="#000000" font-family="Trebuchet MS" font-size="14">mail</text>
	<text x="21" y="315.6" fill="#000000" font-family="Trebuchet MS" font-size="14">telephone</text>
	<text x="21" y="333.6" fill="#000000" font-family="Trebuchet MS" font-size="14">adresse</text>
	<text x="21" y="351.6" fill="#000000" font-family="Trebuchet MS" font-size="14">created_at</text>
	<text x="21" y="369.6" fill="#000000" font-family="Trebuchet MS" font-size="14">updated_at</text>
</g>

<!-- Entity CREDENTIALS -->
<g>
	<g>
		<rect x="242" y="235" width="108" height="26" fill="#a6dba0" stroke="none" stroke-width="0" opacity="1"/>
		<rect x="242" y="261" width="108" height="80" fill="#d9f0d3" stroke="none" stroke-width="0" opacity="1"/>
		<rect x="242" y="235" width="108" height="106" fill="none" stroke="#5aae61" stroke-width="1.5" opacity="1"/>
		<line x1="242" y1="261" x2="350" y2="261" stroke="#5aae61" stroke-width="1"/>
	</g>
	<text x="260" y="253.6" fill="#000000" font-family="Trebuchet MS" font-size="14">credentials</text>
	<text x="247" y="279.6" fill="#000000" font-family="Trebuchet MS" font-size="14">user_id</text>
	<line x1="247" y1="282" x2="295" y2="282" stroke="#000000" stroke-width="1"/>
	<text x="247" y="297.6" fill="#000000" font-family="Trebuchet MS" font-size="14">password_hash</text>
	<text x="247" y="315.6" fill="#000000" font-family="Trebuchet MS" font-size="14">created_at</text>
	<text x="247" y="333.6" fill="#000000" font-family="Trebuchet MS" font-size="14">updated_at</text>
</g>

<!-- Entity COMMUNES -->
<g>
	<g>
		<rect x="19" y="479" width="80" height="26" fill="#a6dba0" stroke="none" stroke-width="0" opacity="1"/>
		<rect x="19" y="505" width="80" height="62" fill="#d9f0d3" stroke="none" stroke-width="0" opacity="1"/>
		<rect x="19" y="479" width="80" height="88" fill="none" stroke="#5aae61" stroke-width="1.5" opacity="1"/>
		<line x1="19" y1="505" x2="99" y2="505" stroke="#5aae61" stroke-width="1"/>
	</g>
	<text x="25" y="497.6" fill="#000000" font-family="Trebuchet MS" font-size="14">communes</text>
	<text x="24" y="523.6" fill="#000000" font-family="Trebuchet MS" font-size="14">id</text>
	<line x1="24" y1="526" x2="37" y2="526" stroke="#000000" stroke-width="1"/>
	<text x="24" y="541.6" fill="#000000" font-family="Trebuchet MS" font-size="14">nom</text>
</g>

<!-- Entity CODES_POSTAUX -->
<g>
	<g>
		<rect x="243" y="488" width="106" height="26" fill="#a6dba0" stroke="none" stroke-width="0" opacity="1"/>
		<rect x="243" y="514" width="106" height="44" fill="#d9f0d3" stroke="none" stroke-width="0" opacity="1"/>
		<rect x="243" y="488" width="106" height="70" fill="none" stroke="#5aae61" stroke-width="1.5" opacity="1"/>
		<line x1="243" y1="514" x2="349" y2="514" stroke="#5aae61" stroke-width="1"/>
	</g>
	<text x="249" y="506.6" fill="#000000" font-family="Trebuchet MS" font-size="14">codes_postaux</text>
	<text x="248" y="532.6" fill="#000000" font-family="Trebuchet MS" font-size="14">id</text>
	<line x1="248" y1="535" x2="261" y2="535" stroke="#000000" stroke-width="1"/>
	<text x="248" y="550.6" fill="#000000" font-family="Trebuchet MS" font-size="14">code</text>
</g>
</svg>