<?xml version="1.0" encoding="utf-8"?>
<!-- Generated by Mocodo 4.3.2 -->
<svg width="366" height="535" viewBox="0 0 366 535" xmlns="http://www.w3.org/2000/svg">
<rect x="0" y="0" width="366" height="535" fill="#f7f7f7" stroke="none" stroke-width="0"/>

<!-- Association TYPER -->
<g>
	<line x1="59" y1="44" x2="173" y2="44" stroke="#9970ab" stroke-width="1"/>
	<line x1="297" y1="44" x2="173" y2="44" stroke="#9970ab" stroke-width="1"/>
	<g>
		<path d="M184 18 a14 14 90 0 1 14 14 V44 h-50 V32 a14 14 90 0 1 14 -14" fill="#c2a5cf" stroke="#c2a5cf" stroke-width="0"/>
		<path d="M198 44 v12 a14 14 90 0 1 -14 14 H162 a14 14 90 0 1 -14 -14 V44 H50" fill="#e7d4e8" stroke="#e7d4e8" stroke-width="0"/>
		<rect x="148" y="18" width="50" height="52" fill="none" rx="14" stroke="#9970ab" stroke-width="1.5"/>
		<line x1="148" y1="44" x2="198" y2="44" stroke="#9970ab" stroke-width="1"/>
		<text x="156" y="36.6" fill="#000000" font-family="Trebuchet MS" font-size="14">typer</text>
	</g>
	<text x="114" y="61" fill="#1b7837" font-family="Verdana" font-size="12">0,N</text>
	<text x="211" y="61" fill="#1b7837" font-family="Verdana" font-size="12">1,1</text>
</g>

<!-- Association CREER -->
<g>
	<line x1="297" y1="44" x2="297" y2="139" stroke="#9970ab" stroke-width="1"/>
	<line x1="173" y1="139" x2="297" y2="139" stroke="#9970ab" stroke-width="1"/>
	<g>
		<path d="M308 113 a14 14 90 0 1 14 14 V139 h-50 V127 a14 14 90 0 1 14 -14" fill="#c2a5cf" stroke="#c2a5cf" stroke-width="0"/>
		<path d="M322 139 v12 a14 14 90 0 1 -14 14 H286 a14 14 90 0 1 -14 -14 V139 H50" fill="#e7d4e8" stroke="#e7d4e8" stroke-width="0"/>
		<rect x="272" y="113" width="50" height="52" fill="none" rx="14" stroke="#9970ab" stroke-width="1.5"/>
		<line x1="272" y1="139" x2="322" y2="139" stroke="#9970ab" stroke-width="1"/>
		<text x="280" y="131.6" fill="#000000" font-family="Trebuchet MS" font-size="14">creer</text>
	</g>
	<text x="302" y="96" fill="#1b7837" font-family="Verdana" font-size="12">0,N</text>
	<text x="238" y="156" fill="#1b7837" font-family="Verdana" font-size="12">1,1</text>
</g>

<!-- Association IDENTIFIER -->
<g>
	<line x1="59" y1="306" x2="173" y2="306" stroke="#9970ab" stroke-width="1"/>
	<line x1="297" y1="306" x2="173" y2="306" stroke="#9970ab" stroke-width="1"/>
	<g>
		<path d="M197 280 a14 14 90 0 1 14 14 V306 h-76 V294 a14 14 90 0 1 14 -14" fill="#c2a5cf" stroke="#c2a5cf" stroke-width="0"/>
		<path d="M211 306 v12 a14 14 90 0 1 -14 14 H149 a14 14 90 0 1 -14 -14 V306 H76" fill="#e7d4e8" stroke="#e7d4e8" stroke-width="0"/>
		<rect x="135" y="280" width="76" height="52" fill="none" rx="14" stroke="#9970ab" stroke-width="1.5"/>
		<line x1="135" y1="306" x2="211" y2="306" stroke="#9970ab" stroke-width="1"/>
		<text x="143" y="298.6" fill="#000000" font-family="Trebuchet MS" font-size="14">identifier</text>
	</g>
	<text x="108" y="323" fill="#1b7837" font-family="Verdana" font-size="12">1,1</text>
	<text x="217" y="323" fill="#1b7837" font-family="Verdana" font-size="12">1,1</text>
</g>

<!-- Entity TYPE_APPAREIL -->
<g>
	<g>
		<rect x="9" y="9" width="100" height="26" fill="#a6dba0" stroke="none" stroke-width="0" opacity="1"/>
		<rect x="9" y="35" width="100" height="44" fill="#d9f0d3" stroke="none" stroke-width="0" opacity="1"/>
		<rect x="9" y="9" width="100" height="70" fill="none" stroke="#5aae61" stroke-width="1.5" opacity="1"/>
		<line x1="9" y1="35" x2="109" y2="35" stroke="#5aae61" stroke-width="1"/>
	</g>
	<text x="14" y="27.6" fill="#000000" font-family="Trebuchet MS" font-size="14">type_appareil</text>
	<text x="14" y="53.6" fill="#000000" font-family="Trebuchet MS" font-size="14">id</text>
	<line x1="14" y1="56" x2="27" y2="56" stroke="#000000" stroke-width="1"/>
	<text x="14" y="71.6" fill="#000000" font-family="Trebuchet MS" font-size="14">libelle</text>
</g>

<!-- Entity MARQUE_APPAREIL -->
<g>
	<g>
		<rect x="237" y="9" width="120" height="26" fill="#a6dba0" stroke="none" stroke-width="0" opacity="1"/>
		<rect x="237" y="35" width="120" height="44" fill="#d9f0d3" stroke="none" stroke-width="0" opacity="1"/>
		<rect x="237" y="9" width="120" height="70" fill="none" stroke="#5aae61" stroke-width="1.5" opacity="1"/>
		<line x1="237" y1="35" x2="357" y2="35" stroke="#5aae61" stroke-width="1"/>
	</g>
	<text x="242" y="27.6" fill="#000000" font-family="Trebuchet MS" font-size="14">marque_appareil</text>
	<text x="242" y="53.6" fill="#000000" font-family="Trebuchet MS" font-size="14">id</text>
	<line x1="242" y1="56" x2="255" y2="56" stroke="#000000" stroke-width="1"/>
	<text x="242" y="71.6" fill="#000000" font-family="Trebuchet MS" font-size="14">libelle</text>
</g>

<!-- Entity MODELE_APPAREIL -->
<g>
	<g>
		<rect x="113" y="104" width="120" height="26" fill="#a6dba0" stroke="none" stroke-width="0" opacity="1"/>
		<rect x="113" y="130" width="120" height="44" fill="#d9f0d3" stroke="none" stroke-width="0" opacity="1"/>
		<rect x="113" y="104" width="120" height="70" fill="none" stroke="#5aae61" stroke-width="1.5" opacity="1"/>
		<line x1="113" y1="130" x2="233" y2="130" stroke="#5aae61" stroke-width="1"/>
	</g>
	<text x="119" y="122.6" fill="#000000" font-family="Trebuchet MS" font-size="14">modele_appareil</text>
	<text x="118" y="148.6" fill="#000000" font-family="Trebuchet MS" font-size="14">id</text>
	<line x1="118" y1="151" x2="131" y2="151" stroke="#000000" stroke-width="1"/>
	<text x="118" y="166.6" fill="#000000" font-family="Trebuchet MS" font-size="14">libelle</text>
</g>

<!-- Entity USERS -->
<g>
	<g>
		<rect x="15" y="199" width="88" height="26" fill="#a6dba0" stroke="none" stroke-width="0" opacity="1"/>
		<rect x="15" y="225" width="88" height="188" fill="#d9f0d3" stroke="none" stroke-width="0" opacity="1"/>
		<rect x="15" y="199" width="88" height="214" fill="none" stroke="#5aae61" stroke-width="1.5" opacity="1"/>
		<line x1="15" y1="225" x2="103" y2="225" stroke="#5aae61" stroke-width="1"/>
	</g>
	<text x="42" y="217.6" fill="#000000" font-family="Trebuchet MS" font-size="14">users</text>
	<text x="20" y="243.6" fill="#000000" font-family="Trebuchet MS" font-size="14">id</text>
	<line x1="20" y1="246" x2="33" y2="246" stroke="#000000" stroke-width="1"/>
	<text x="20" y="261.6" fill="#000000" font-family="Trebuchet MS" font-size="14">nom</text>
	<text x="20" y="279.6" fill="#000000" font-family="Trebuchet MS" font-size="14">prenom</text>
	<text x="20" y="297.6" fill="#000000" font-family="Trebuchet MS" font-size="14">mail</text>
	<text x="20" y="315.6" fill="#000000" font-family="Trebuchet MS" font-size="14">telephone</text>
	<text x="20" y="333.6" fill="#000000" font-family="Trebuchet MS" font-size="14">ville</text>
	<text x="20" y="351.6" fill="#000000" font-family="Trebuchet MS" font-size="14">code_postal</text>
	<text x="20" y="369.6" fill="#000000" font-family="Trebuchet MS" font-size="14">adresse</text>
	<text x="20" y="387.6" fill="#000000" font-family="Trebuchet MS" font-size="14">created_at</text>
	<text x="20" y="405.6" fill="#000000" font-family="Trebuchet MS" font-size="14">updated_at</text>
</g>

<!-- Entity CREDENTIALS -->
<g>
	<g>
		<rect x="243" y="253" width="108" height="26" fill="#a6dba0" stroke="none" stroke-width="0" opacity="1"/>
		<rect x="243" y="279" width="108" height="80" fill="#d9f0d3" stroke="none" stroke-width="0" opacity="1"/>
		<rect x="243" y="253" width="108" height="106" fill="none" stroke="#5aae61" stroke-width="1.5" opacity="1"/>
		<line x1="243" y1="279" x2="351" y2="279" stroke="#5aae61" stroke-width="1"/>
	</g>
	<text x="261" y="271.6" fill="#000000" font-family="Trebuchet MS" font-size="14">credentials</text>
	<text x="248" y="297.6" fill="#000000" font-family="Trebuchet MS" font-size="14">user_id</text>
	<line x1="248" y1="300" x2="296" y2="300" stroke="#000000" stroke-width="1"/>
	<text x="248" y="315.6" fill="#000000" font-family="Trebuchet MS" font-size="14">password_hash</text>
	<text x="248" y="333.6" fill="#000000" font-family="Trebuchet MS" font-size="14">created_at</text>
	<text x="248" y="351.6" fill="#000000" font-family="Trebuchet MS" font-size="14">updated_at</text>
</g>

<!-- Entity COMMUNES -->
<g>
	<g>
		<rect x="129" y="438" width="88" height="26" fill="#a6dba0" stroke="none" stroke-width="0" opacity="1"/>
		<rect x="129" y="464" width="88" height="62" fill="#d9f0d3" stroke="none" stroke-width="0" opacity="1"/>
		<rect x="129" y="438" width="88" height="88" fill="none" stroke="#5aae61" stroke-width="1.5" opacity="1"/>
		<line x1="129" y1="464" x2="217" y2="464" stroke="#5aae61" stroke-width="1"/>
	</g>
	<text x="139" y="456.6" fill="#000000" font-family="Trebuchet MS" font-size="14">communes</text>
	<text x="134" y="482.6" fill="#000000" font-family="Trebuchet MS" font-size="14">id</text>
	<line x1="134" y1="485" x2="147" y2="485" stroke="#000000" stroke-width="1"/>
	<text x="134" y="500.6" fill="#000000" font-family="Trebuchet MS" font-size="14">nom</text>
	<text x="134" y="518.6" fill="#000000" font-family="Trebuchet MS" font-size="14">code_postal</text>
</g>
</svg>